<?xml version="1.0" encoding="UTF-8" standalone="no"?>
<!-- Created with Inkscape (http://www.inkscape.org/) -->

<svg
   width="165.09001mm"
   height="69.892998mm"
   viewBox="0 0 165.09001 69.892996"
   version="1.1"
   id="svg1"
   xml:space="preserve"
   inkscape:export-filename="logoviverouady.svg"
   inkscape:export-xdpi="96"
   inkscape:export-ydpi="96"
   sodipodi:docname="viverologo.svg"
   inkscape:version="1.3.2 (091e20e, 2023-11-25, custom)"
   xmlns:inkscape="http://www.inkscape.org/namespaces/inkscape"
   xmlns:sodipodi="http://sodipodi.sourceforge.net/DTD/sodipodi-0.dtd"
   xmlns="http://www.w3.org/2000/svg"
   xmlns:svg="http://www.w3.org/2000/svg"><sodipodi:namedview
     id="namedview1"
     pagecolor="#ffffff"
     bordercolor="#000000"
     borderopacity="0.25"
     inkscape:showpageshadow="2"
     inkscape:pageopacity="0.0"
     inkscape:pagecheckerboard="0"
     inkscape:deskcolor="#d1d1d1"
     inkscape:document-units="mm"
     showborder="true"
     inkscape:export-bgcolor="#ffffffff"
     inkscape:zoom="1.3227875"
     inkscape:cx="269.12864"
     inkscape:cy="166.69344"
     inkscape:window-width="1920"
     inkscape:window-height="1111"
     inkscape:window-x="-9"
     inkscape:window-y="-9"
     inkscape:window-maximized="1"
     inkscape:current-layer="svg1" /><defs
     id="defs1" /><path
     style="fill:#688547;fill-opacity:1;stroke:none;stroke-width:0.788928;stroke-dasharray:none;stroke-opacity:1"
     d="m -34.403359,73.992499 c 0,0 29.6226352,-31.988399 106.935613,-31.988399 77.312976,0 105.885166,39.203827 105.885166,39.203827 z"
     id="path3" /><path
     style="fill:#f4e3d7;stroke:none;stroke-width:0.588013;stroke-dasharray:none;stroke-opacity:0.97973"
     d="M 69.395691,21.052952 56.060652,16.988629 c -0.203449,-0.436385 -0.265931,-0.976657 -1.44484,-3.065548 -0.377264,-0.668461 -0.982138,-1.97181 -0.749022,-1.97181 0.144095,0 3.572589,1.288309 13.73038,5.616035 10.43069,4.443996 11.849968,5.663319 14.081635,6.818578 0.320501,0.177807 4.13393,1.641455 3.617707,2.059918 -0.08998,-0.0038 -8.621946,-3.174357 -15.900821,-5.39285 z"
     id="path39"
     sodipodi:nodetypes="scssssss" /><path
     style="fill:#6c5d53;stroke:none;stroke-width:2.00495;stroke-dasharray:none;stroke-opacity:0.97973"
     d="m 21.769382,25.65545 -6.688353,-0.535097 -0.08917,-0.663929 c -0.05955,-0.443319 0.03502,-0.66508 0.28461,-0.667396 0.205588,-0.0019 3.127405,-0.230167 6.492928,-0.507246 3.365523,-0.277078 6.471338,-0.505339 6.90181,-0.507246 l 0.782678,-0.0035 v 1.736428 c 0,1.527718 -0.05987,1.73322 -0.498064,1.709741 -0.273938,-0.01469 -3.507831,-0.267482 -7.186424,-0.561786 z"
     id="path95" /><path
     style="fill:#6c5d53;stroke:none;stroke-width:1.36991;stroke-dasharray:none;stroke-opacity:0.97973"
     d="m 42.360119,27.874641 c -6.649786,-0.786629 -12.25295,-1.433888 -12.451474,-1.438355 -0.355863,-0.008 -0.360318,-0.03408 -0.316091,-1.85048 l 0.04486,-1.842362 12.406615,-1.495483 C 48.86767,20.425446 54.681787,19.747466 54.964297,19.74134 l 0.513648,-0.01111 v 4.808796 4.808795 l -0.513648,-0.02146 c -0.28251,-0.01179 -5.954387,-0.665065 -12.604175,-1.451693 z"
     id="path94" /><path
     style="fill:#6c5d53;stroke:none;stroke-width:1.44092;stroke-dasharray:none;stroke-opacity:0.97973"
     d="m 68.164891,30.885392 c -0.04787,-0.0489 -2.625942,-0.363403 -5.729067,-0.698894 -3.103127,-0.335495 -5.969934,-0.655019 -6.370683,-0.710055 l -0.728633,-0.100066 v -4.893804 c 0,-3.614296 0.05234,-4.893803 0.200193,-4.893803 0.110103,0 5.414137,1.623082 11.786738,3.606849 6.372596,1.983768 13.939605,4.338247 16.815568,5.232178 5.044353,1.567925 5.230942,1.641592 5.283274,2.085915 l 0.05425,0.460589 H 78.864226 c -5.83677,0 -10.651469,-0.04002 -10.699331,-0.08891 z"
     id="path93" /><path
     style="fill:#ac9d93;stroke:none;stroke-width:0.588013;stroke-dasharray:none;stroke-opacity:0.97973"
     d="m 55.83153,41.581937 c 0,-19.131903 -0.09772,-11.745542 0.0029,-11.745542 11.144393,3.332494 21.801188,0.70562 33.42482,1.147131 l 1.507289,0.05725 -0.01794,9.686425 -0.01794,9.686424 -17.29045,6.137148 c -9.509746,3.37543 -17.362048,6.13787 -17.449561,6.138754 l -0.159115,0.0016 z"
     id="path40"
     sodipodi:nodetypes="csscccsccc" /><path
     style="fill:#ac9d93;stroke:none;stroke-width:0.588013;stroke-dasharray:none;stroke-opacity:0.97973"
     d="M 17.820831,57.738374 C 12.453366,56.929623 7.7037257,56.213999 7.2660742,56.148102 l -0.7957301,-0.11982 0.017835,-15.601058 0.017838,-15.601058 5.3038179,0.372755 c 14.270728,1.002955 12.813215,3.263877 15.999854,1.072123 l 1.997771,1.414882 -1.838659,13.294904 v 18.245135 l -0.194471,-0.0086 c -0.106961,-0.0047 -4.586036,-0.670275 -9.9535,-1.479029 z"
     id="path42"
     sodipodi:nodetypes="cscccsccccscc" /><path
     style="fill:#ac9d93;stroke:none;stroke-width:0.588013;stroke-dasharray:none;stroke-opacity:0.97973"
     d="m 41.723373,61.310681 c -6.262042,-0.945539 -11.393487,-1.72185 -11.403211,-1.725139 -0.0097,-0.0033 -0.01767,-8.359495 -0.01767,-18.569345 0,-15.460577 -0.164216,-15.138127 -0.08536,-15.138127 0.138864,0 24.220773,3.749601 24.379795,3.749601 0.09943,0 -1.028353,-7.359142 -1.028353,11.989625 v 21.427427 l -0.229833,-0.0074 c -0.126407,-0.0041 -5.35332,-0.781066 -11.615362,-1.726602 z"
     id="path41"
     sodipodi:nodetypes="ssssssccss" /><path
     style="display:inline;fill:none;stroke:#2b1100;stroke-width:2.2;stroke-dasharray:none;stroke-opacity:1"
     d="M 54.865136,19.23528 C 56.456389,14.143272 48.189049,4.20064 31.56066,5.30975 14.932269,6.4188601 5.227223,23.9182 5.227223,23.9182"
     id="path17"
     sodipodi:nodetypes="csc" /><text
     xml:space="preserve"
     style="font-style:normal;font-variant:normal;font-weight:normal;font-stretch:normal;font-size:24.8784px;font-family:Arial;-inkscape-font-specification:Arial;display:inline;fill:#008000;fill-opacity:1;stroke:#008000;stroke-width:0.702;stroke-dasharray:none;stroke-opacity:1"
     x="97.3321"
     y="42.13509"
     id="text3"><tspan
       sodipodi:role="line"
       id="tspan3"
       style="font-style:normal;font-variant:normal;font-weight:normal;font-stretch:normal;font-size:24.8784px;font-family:'DM Serif Display';-inkscape-font-specification:'DM Serif Display';fill:#008000;fill-opacity:1;stroke:#008000;stroke-width:0.702;stroke-dasharray:none;stroke-opacity:1"
       x="97.3321"
       y="42.13509">UADY</tspan></text><text
     xml:space="preserve"
     style="font-style:normal;font-variant:normal;font-weight:normal;font-stretch:normal;font-size:24.8784px;font-family:Arial;-inkscape-font-specification:Arial;display:inline;fill:#008000;stroke:#008000;stroke-width:0.702;stroke-dasharray:none;stroke-opacity:1"
     x="92.642899"
     y="22.042923"
     id="text1"><tspan
       id="tspan1"
       style="font-style:normal;font-variant:normal;font-weight:normal;font-stretch:normal;font-size:24.8784px;font-family:'DM Serif Display';-inkscape-font-specification:'DM Serif Display';fill:#008000;stroke:#008000;stroke-width:0.702;stroke-dasharray:none;stroke-opacity:1"
       x="92.642899"
       y="22.042923"
       sodipodi:role="line">Vivero</tspan><tspan
       style="font-style:normal;font-variant:normal;font-weight:normal;font-stretch:normal;font-size:24.8784px;font-family:Arial;-inkscape-font-specification:Arial;fill:#008000;stroke:#008000;stroke-width:0.702;stroke-dasharray:none;stroke-opacity:1"
       x="92.642899"
       y="53.641022"
       id="tspan2"
       sodipodi:role="line" /></text><path
     style="display:inline;fill:none;stroke:#28170b;stroke-width:2.36205;stroke-dasharray:none;stroke-opacity:1"
     d="M 73.506914,23.696244 55.398962,17.698898 54.904507,16.720741 C 53.783042,14.502185 52.233502,12.255232 50.449405,10.260517 49.810713,9.5464276 48.128651,8.6085762 48.180842,8.6085762 c 0.0951,0 24.537305,10.3608008 29.798286,12.6671478 5.130577,2.249171 8.516685,4.233384 12.326355,7.223059 1.296816,1.017705 1.513043,1.202823 1.399698,1.198374 -0.04973,-0.0022 -8.238899,-2.702371 -18.198267,-6.000913 z"
     id="path32"
     sodipodi:nodetypes="scssssscs" /><path
     style="fill:#f5e3d7;fill-opacity:1;stroke:none;stroke-width:0.588013;stroke-dasharray:none;stroke-opacity:0.97973"
     d="m 10.969683,17.989157 c 5.428562,-6.200626 11.73188,-10.1048717 18.130602,-11.2300097 1.243306,-0.2186204 1.882865,-0.283851 3.530264,-0.3600637 3.537169,-0.1636377 7.074656,0.2564286 10.224304,1.2141073 2.729542,0.8299407 5.741498,2.4561391 6.886607,3.7181781 1.343543,1.480735 3.112021,4.047406 3.994652,5.797614 0.160243,0.317757 0.248542,0.727206 0.156824,0.727206 -0.03665,0 -8.196797,1.855442 -29.201949,3.935648 -9.040747,0.895333 -17.8113026,1.565372 -17.9010795,1.565372 -0.8285323,0 3.7616885,-4.890504 4.1797755,-5.368052 z"
     id="path38"
     sodipodi:nodetypes="ssssssssss" /><path
     style="fill:none;stroke:#28170b;stroke-width:2.2;stroke-dasharray:none;stroke-opacity:0.97973"
     d="M 91.808963,30.903015 H 65.906432 v 19.001857 h 25.102453"
     id="path43" /><path
     style="fill:none;stroke:#28170b;stroke-width:2.2;stroke-dasharray:none;stroke-opacity:0.97973"
     d="M 65.506395,49.604842 5.2005076,56.505517"
     id="path44" /><path
     style="fill:none;stroke:#28170b;stroke-width:2.2;stroke-dasharray:none;stroke-opacity:0.97973"
     d="M 5.5005369,24.302372 66.406481,30.803006"
     id="path45" /><path
     style="display:inline;fill:#6c5d53;fill-opacity:0.609877;stroke-width:2.2;stroke-opacity:0.97973"
     d="M 5.2331011,24.326848 V 56.856936 L 54.735409,64.353 54.876845,18.528006 Z"
     id="path2" /><path
     style="fill:#6c5d53;fill-opacity:0.609877;stroke-width:2.2;stroke-opacity:0.97973"
     d="M 55.005369,18.901845 54.805349,64.106258 92.409022,50.80496 92.309012,30.202949 Z"
     id="path1" /><path
     style="display:inline;fill:none;stroke:#28170b;stroke-width:2.23545;stroke-dasharray:none;stroke-opacity:0.97973"
     d="M 54.705339,19.401894 V 63.906239"
     id="path29" /><path
     style="fill:none;stroke:#28170b;stroke-width:2.2;stroke-dasharray:none;stroke-opacity:0.97973"
     d="m 29.135644,21.92245 v 38.328929 h -0.141436 v 0"
     id="path30" /><path
     style="display:inline;fill:none;stroke:#2b1100;stroke-width:2.2;stroke-dasharray:none;stroke-opacity:0.97973"
     d="M 5.3692741,24.364878 5.3005174,57.005563 54.705339,64.406287 91.908973,51.204997 V 30.202949 L 54.805349,18.901845 Z"
     id="path28"
     sodipodi:nodetypes="ccccccc" /></svg>
